PathFileType	4	(X/Y/Z)	s01c0202.trc
DataRate	CameraRate	NumFrames	NumMarkers	Units	OrigDataRate	OrigDataStartFrame	OrigNumFrames
200	200	4	48	mm	200	250	2000
Frame#	Time	racr			lacr			c7			jug			rlel			rdr			llel			ldr			s2			lic			ric			lasi			rasi			rpsi			lpsi			rgt			lgt			rth1			rth2			rth3			rth4			rlfc			rsh1			rsh2			rsh3			rsh4			rlmal			rmmal			rcal			rtoe			rmt5			lth1			lth2			lth4			lth3			llfc			lsh1			lsh2			lsh3			lsh4			llmal			lmmal			lcal			ltoe			lmt5			SBIKE			LBIKE			RBIKE			
		X1	Y1	Z1	X2	Y2	Z2	X3	Y3	Z3	X4	Y4	Z4	X5	Y5	Z5	X6	Y6	Z6	X7	Y7	Z7	X8	Y8	Z8	X9	Y9	Z9	X10	Y10	Z10	X11	Y11	Z11	X12	Y12	Z12	X13	Y13	Z13	X14	Y14	Z14	X15	Y15	Z15	X16	Y16	Z16	X17	Y17	Z17	X18	Y18	Z18	X19	Y19	Z19	X20	Y20	Z20	X21	Y21	Z21	X22	Y22	Z22	X23	Y23	Z23	X24	Y24	Z24	X25	Y25	Z25	X26	Y26	Z26	X27	Y27	Z27	X28	Y28	Z28	X29	Y29	Z29	X30	Y30	Z30	X31	Y31	Z31	X32	Y32	Z32	X33	Y33	Z33	X34	Y34	Z34	X35	Y35	Z35	X36	Y36	Z36	X37	Y37	Z37	X38	Y38	Z38	X39	Y39	Z39	X40	Y40	Z40	X41	Y41	Z41	X42	Y42	Z42	X43	Y43	Z43	X44	Y44	Z44	X45	Y45	Z45	X46	Y46	Z46	X47	Y47	Z47	X48	Y48	Z48	
250	1.2500	447.686450	1350.091527	-135.186808	444.286690	1346.504469	-437.675835	403.068772	1405.919184	-281.048686	424.791476	1246.769006	-285.481263	544.393561	1100.722962	-34.903240	710.850376	895.092430	-58.698342	541.424962	1098.345853	-529.161960	691.508960	892.219793	-471.833053	-97.220473	1146.473158	-254.484214	91.585233	1161.836185	-436.648187	74.487030	1142.544268	-110.709893	68.770479	1104.944801	-407.769194	95.292581	1092.141123	-134.868433	-65.118647	1181.771592	-202.397604	-74.103690	1186.427440	-309.673270	10.867660	1021.093552	-76.268640	10.567781	1045.115031	-465.486834	84.833829	899.483815	-62.410414	131.760617	832.409097	-74.985125	177.389584	756.313356	-93.295921	176.623863	862.759339	-90.144480	208.335669	654.702328	-120.704122	147.890509	554.883663	-83.343789	125.807043	473.043902	-82.207929	93.844238	389.561759	-90.971019	172.410822	457.676993	-117.608872	46.926480	267.785420	-107.279523	101.239199	278.932769	-180.574100	4.492228	239.467104	-163.439924	268.379976	180.393347	-140.266199	158.607556	166.449121	-74.768970	113.400796	980.612499	-468.123954	201.776074	977.575457	-475.822073	205.937010	1031.798490	-466.995112	286.956061	966.216434	-468.255795	393.669790	909.245649	-452.198741	311.497450	831.214417	-470.195552	271.340750	755.482469	-458.285246	229.170636	683.498345	-436.636291	322.621607	733.135204	-431.536686	170.936105	572.349760	-414.191301	201.553558	582.522089	-331.474017	116.486949	535.896606	-371.048437	392.640983	512.546692	-386.478790	285.918694	491.773784	-449.266895	-230.394423	890.282775	-256.143366	-22.957971	80.160153	-456.654257	-22.901041	80.313871	-56.431479	
251	1.2550	447.733532	1350.107661	-135.105888	444.462246	1346.273822	-437.629478	402.660951	1406.196486	-281.446217	425.181149	1247.214716	-285.464775	544.244577	1100.710873	-34.549894	710.749831	895.183075	-58.723711	540.035407	1098.104149	-534.115927	691.091260	892.528990	-471.329271	-97.586434	1146.780952	-254.072058	90.895717	1162.106323	-437.041785	74.618317	1142.922891	-110.818906	68.089379	1105.540263	-407.585427	95.151392	1092.523646	-134.676762	-65.292556	1182.048559	-202.084217	-74.541013	1186.825192	-309.222624	10.844999	1021.326858	-75.957508	10.346222	1045.475921	-465.009692	85.213288	900.034914	-62.258397	132.235410	833.060854	-74.779504	177.921300	756.954940	-93.068555	176.981602	863.412783	-90.190159	208.729926	655.252644	-120.963755	148.375012	555.655441	-83.482683	126.253942	473.718751	-82.334211	94.309008	390.347371	-91.046632	172.851404	458.476490	-117.818787	47.160139	268.526214	-107.232611	101.595548	279.495633	-180.567863	4.791846	240.394844	-163.450789	268.455865	180.008651	-140.288232	158.587972	166.733836	-74.847416	113.447349	980.970952	-467.227009	201.919481	977.866250	-474.450361	206.142731	1032.015506	-465.752899	286.867346	966.261565	-466.909840	393.323844	909.738988	-450.397820	311.496774	831.457849	-468.817028	271.444985	755.625659	-457.230223	229.354807	683.537278	-436.027713	322.714886	733.307916	-430.496803	171.307253	572.136871	-414.125556	201.777993	582.248684	-331.306798	116.882189	535.646841	-371.023243	392.890978	512.422587	-386.566081	286.190977	491.646794	-449.375691	-230.382987	890.275780	-256.153981	-22.963696	80.189440	-456.635719	-22.895174	80.317856	-56.433628	
252	1.2600	447.783688	1350.068336	-135.003061	444.578654	1346.088487	-437.986725	402.300255	1406.409883	-281.994673	425.574005	1247.490098	-285.374027	544.075820	1100.683889	-34.144314	710.952695	895.240471	-59.323984	538.713397	1097.594511	-539.265319	690.690048	893.052128	-470.647288	-98.008311	1147.114665	-253.590132	89.994157	1162.272178	-437.373524	74.738106	1143.358230	-110.867359	67.501883	1106.015025	-407.320057	95.017248	1092.911316	-134.456762	-64.863057	1181.919935	-202.053838	-74.808851	1187.083583	-308.898443	10.813750	1021.593160	-75.642431	10.052724	1045.885016	-464.520734	85.703253	900.689615	-62.064312	132.793266	833.685614	-74.641422	178.538695	757.772085	-92.864753	177.466506	864.136460	-90.205042	209.243452	656.012383	-121.274525	148.979824	556.404971	-83.624797	126.792191	474.549407	-82.576885	94.864764	391.198334	-91.173161	173.297604	459.266469	-118.041475	47.456915	269.339869	-107.197117	101.938279	280.117507	-180.611797	5.183843	241.573271	-163.561545	268.557263	179.664208	-140.306937	158.563723	167.093392	-74.967231	113.459431	981.344768	-466.246769	202.001653	978.090155	-472.953449	206.212607	1032.313201	-464.367547	287.037823	966.526973	-464.679175	393.065302	910.108691	-448.411035	311.445238	831.725936	-467.334048	271.540753	755.775822	-456.186706	229.621462	683.539130	-435.376832	322.757301	733.563275	-429.272812	171.732518	571.909646	-414.026394	202.056106	581.966628	-331.078824	117.314874	535.365918	-370.935684	393.212954	512.254737	-386.625424	286.494003	491.509769	-449.444635	-230.398707	890.259036	-256.110217	-22.957832	80.187295	-456.657932	-22.901546	80.336058	-56.464979	
253	1.2650	447.819980	1350.050528	-135.001555	444.636647	1345.917428	-438.737780	401.989002	1406.521975	-282.489260	426.021160	1247.916031	-284.833585	543.929532	1100.671584	-33.656920	710.920812	895.367078	-59.557672	537.355971	1096.858170	-544.377463	690.402409	893.785465	-469.788966	-98.395505	1147.523798	-253.071022	89.038483	1162.567360	-437.764875	74.834562	1143.752442	-110.901696	66.832922	1106.563444	-406.577701	94.814554	1093.484035	-134.132855	-65.037594	1182.307497	-201.557178	-75.259398	1187.511011	-308.289222	10.777096	1021.898749	-75.250810	9.740673	1046.450239	-464.005647	86.172578	901.450616	-61.912028	133.386313	834.531507	-74.529414	179.221961	758.562808	-92.784706	177.979155	865.080586	-90.181772	209.827869	656.791430	-121.694539	149.624285	557.386246	-83.865934	127.462439	475.566566	-82.798839	95.451360	392.186806	-91.332891	173.852834	460.261484	-118.416096	47.834297	270.186179	-107.148271	102.297065	280.823495	-180.694360	5.641658	242.731786	-163.675574	268.673717	179.306357	-140.292429	158.558180	167.480847	-75.084779	113.431204	981.737410	-465.185028	202.083927	978.372854	-471.323686	206.277811	1032.610982	-462.894327	286.955433	966.745093	-462.682895	392.733532	910.647303	-446.316852	311.437770	832.023383	-465.660866	271.629078	755.924879	-455.032536	229.904170	683.578153	-434.693015	322.905007	733.797673	-427.973019	172.166838	571.678428	-413.883989	202.521005	581.633650	-330.721738	117.763637	535.079804	-370.815772	393.536935	512.055286	-386.742120	286.777521	491.334504	-449.503841	-230.386367	890.272373	-256.080656	-22.952799	80.188236	-456.651979	-22.900513	80.329482	-56.446923	
